<svg width="1200" height="630" viewBox="0 0 1200 630" fill="none" xmlns="http://www.w3.org/2000/svg">
<g clip-path="url(#clip0_61_78)">
<path opacity="0.05" d="M600.147 629.874C765.718 629.874 899.939 488.944 899.939 315.098C899.939 141.252 765.718 0.322144 600.147 0.322144C434.577 0.322144 300.356 141.252 300.356 315.098C300.356 488.944 434.577 629.874 600.147 629.874Z" fill="url(#paint0_radial_61_78)"/>
<path opacity="0.15" d="M105.485 274.283C271.056 274.283 405.277 133.353 405.277 -40.4931C405.277 -214.339 271.056 -355.269 105.485 -355.269C-60.0849 -355.269 -194.306 -214.339 -194.306 -40.4931C-194.306 133.353 -60.0849 274.283 105.485 274.283Z" fill="url(#paint1_radial_61_78)"/>
<path opacity="0.15" d="M1206.55 1055.57C1372.12 1055.57 1506.34 914.643 1506.34 740.797C1506.34 566.951 1372.12 426.021 1206.55 426.021C1040.98 426.021 906.762 566.951 906.762 740.797C906.762 914.643 1040.98 1055.57 1206.55 1055.57Z" fill="url(#paint2_radial_61_78)"/>
</g>
<defs>
<radialGradient id="paint0_radial_61_78" cx="0" cy="0" r="1" gradientUnits="userSpaceOnUse" gradientTransform="translate(599.97 315.09) rotate(90) scale(314.776 299.791)">
<stop stop-color="#2563EB"/>
<stop offset="1" stop-color="#2563EB" stop-opacity="0"/>
</radialGradient>
<radialGradient id="paint1_radial_61_78" cx="0" cy="0" r="1" gradientUnits="userSpaceOnUse" gradientTransform="translate(105.308 -40.5005) rotate(90) scale(314.776 299.791)">
<stop stop-color="#2563EB"/>
<stop offset="1" stop-color="#2563EB" stop-opacity="0"/>
</radialGradient>
<radialGradient id="paint2_radial_61_78" cx="0" cy="0" r="1" gradientUnits="userSpaceOnUse" gradientTransform="translate(1206.38 740.79) rotate(90) scale(314.776 299.791)">
<stop stop-color="#2563EB"/>
<stop offset="1" stop-color="#2563EB" stop-opacity="0"/>
</radialGradient>
<clipPath id="clip0_61_78">
<rect width="1200" height="630" fill="white"/>
</clipPath>
</defs>
</svg>
