<svg width="250" height="630" viewBox="0 0 250 630" fill="none" xmlns="http://www.w3.org/2000/svg">
<g clip-path="url(#clip0_61_78)">
<g clip-path="url(#clip1_61_78)">
<circle cx="17" cy="17" r="5" fill="white" fill-opacity="0.25"/>
<circle cx="52" cy="17" r="5" fill="white" fill-opacity="0.25"/>
<circle cx="87" cy="17" r="5" fill="white" fill-opacity="0.25"/>
<circle cx="122" cy="17" r="5" fill="white" fill-opacity="0.25"/>
<circle cx="157" cy="17" r="5" fill="white" fill-opacity="0.25"/>
<circle cx="192" cy="17" r="5" fill="white" fill-opacity="0.25"/>
<circle cx="227" cy="17" r="5" fill="white" fill-opacity="0.25"/>
<circle cx="17" cy="52" r="5" fill="white" fill-opacity="0.25"/>
<circle cx="52" cy="52" r="5" fill="white" fill-opacity="0.25"/>
<circle cx="87" cy="52" r="5" fill="white" fill-opacity="0.25"/>
<circle cx="122" cy="52" r="5" fill="white" fill-opacity="0.25"/>
<circle cx="157" cy="52" r="5" fill="white" fill-opacity="0.25"/>
<circle cx="192" cy="52" r="5" fill="white" fill-opacity="0.25"/>
<circle cx="227" cy="52" r="5" fill="white" fill-opacity="0.25"/>
<circle cx="17" cy="87" r="5" fill="white" fill-opacity="0.25"/>
<circle cx="52" cy="87" r="5" fill="white" fill-opacity="0.25"/>
<circle cx="87" cy="87" r="5" fill="white" fill-opacity="0.25"/>
<circle cx="122" cy="87" r="5" fill="white" fill-opacity="0.25"/>
<circle cx="157" cy="87" r="5" fill="white" fill-opacity="0.25"/>
<circle cx="192" cy="87" r="5" fill="white" fill-opacity="0.25"/>
<circle cx="227" cy="87" r="5" fill="white" fill-opacity="0.25"/>
<circle cx="17" cy="122" r="5" fill="white" fill-opacity="0.25"/>
<circle cx="52" cy="122" r="5" fill="white" fill-opacity="0.25"/>
<circle cx="87" cy="122" r="5" fill="white" fill-opacity="0.25"/>
<circle cx="122" cy="122" r="5" fill="white" fill-opacity="0.25"/>
<circle cx="157" cy="122" r="5" fill="white" fill-opacity="0.25"/>
<circle cx="192" cy="122" r="5" fill="white" fill-opacity="0.25"/>
<circle cx="227" cy="122" r="5" fill="white" fill-opacity="0.25"/>
<circle cx="17" cy="157" r="5" fill="white" fill-opacity="0.25"/>
<circle cx="52" cy="157" r="5" fill="white" fill-opacity="0.25"/>
<circle cx="87" cy="157" r="5" fill="white" fill-opacity="0.25"/>
<circle cx="122" cy="157" r="5" fill="white" fill-opacity="0.25"/>
<circle cx="157" cy="157" r="5" fill="white" fill-opacity="0.25"/>
<circle cx="192" cy="157" r="5" fill="white" fill-opacity="0.25"/>
<circle cx="227" cy="157" r="5" fill="white" fill-opacity="0.25"/>
<circle cx="17" cy="192" r="5" fill="white" fill-opacity="0.25"/>
<circle cx="52" cy="192" r="5" fill="white" fill-opacity="0.25"/>
<circle cx="87" cy="192" r="5" fill="white" fill-opacity="0.25"/>
<circle cx="122" cy="192" r="5" fill="white" fill-opacity="0.25"/>
<circle cx="157" cy="192" r="5" fill="white" fill-opacity="0.25"/>
<circle cx="192" cy="192" r="5" fill="white" fill-opacity="0.25"/>
<circle cx="227" cy="192" r="5" fill="white" fill-opacity="0.25"/>
<circle cx="17" cy="227" r="5" fill="white" fill-opacity="0.25"/>
<circle cx="52" cy="227" r="5" fill="white" fill-opacity="0.25"/>
<circle cx="87" cy="227" r="5" fill="white" fill-opacity="0.25"/>
<circle cx="122" cy="227" r="5" fill="white" fill-opacity="0.25"/>
<circle cx="157" cy="227" r="5" fill="white" fill-opacity="0.25"/>
<circle cx="192" cy="227" r="5" fill="white" fill-opacity="0.25"/>
<circle cx="227" cy="227" r="5" fill="white" fill-opacity="0.25"/>
<circle cx="17" cy="262" r="5" fill="white" fill-opacity="0.25"/>
<circle cx="52" cy="262" r="5" fill="white" fill-opacity="0.25"/>
<circle cx="87" cy="262" r="5" fill="white" fill-opacity="0.25"/>
<circle cx="122" cy="262" r="5" fill="white" fill-opacity="0.25"/>
<circle cx="157" cy="262" r="5" fill="white" fill-opacity="0.25"/>
<circle cx="192" cy="262" r="5" fill="white" fill-opacity="0.25"/>
<circle cx="227" cy="262" r="5" fill="white" fill-opacity="0.25"/>
<circle cx="17" cy="297" r="5" fill="white" fill-opacity="0.25"/>
<circle cx="52" cy="297" r="5" fill="white" fill-opacity="0.25"/>
<circle cx="87" cy="297" r="5" fill="white" fill-opacity="0.25"/>
<circle cx="122" cy="297" r="5" fill="white" fill-opacity="0.25"/>
<circle cx="157" cy="297" r="5" fill="white" fill-opacity="0.25"/>
<circle cx="192" cy="297" r="5" fill="white" fill-opacity="0.25"/>
<circle cx="227" cy="297" r="5" fill="white" fill-opacity="0.25"/>
<circle cx="17" cy="332" r="5" fill="white" fill-opacity="0.25"/>
<circle cx="52" cy="332" r="5" fill="white" fill-opacity="0.25"/>
<circle cx="87" cy="332" r="5" fill="white" fill-opacity="0.25"/>
<circle cx="122" cy="332" r="5" fill="white" fill-opacity="0.25"/>
<circle cx="157" cy="332" r="5" fill="white" fill-opacity="0.25"/>
<circle cx="192" cy="332" r="5" fill="white" fill-opacity="0.25"/>
<circle cx="227" cy="332" r="5" fill="white" fill-opacity="0.25"/>
<circle cx="17" cy="367" r="5" fill="white" fill-opacity="0.25"/>
<circle cx="52" cy="367" r="5" fill="white" fill-opacity="0.25"/>
<circle cx="87" cy="367" r="5" fill="white" fill-opacity="0.25"/>
<circle cx="122" cy="367" r="5" fill="white" fill-opacity="0.25"/>
<circle cx="157" cy="367" r="5" fill="white" fill-opacity="0.25"/>
<circle cx="192" cy="367" r="5" fill="white" fill-opacity="0.25"/>
<circle cx="227" cy="367" r="5" fill="white" fill-opacity="0.25"/>
<circle cx="17" cy="402" r="5" fill="white" fill-opacity="0.25"/>
<circle cx="52" cy="402" r="5" fill="white" fill-opacity="0.25"/>
<circle cx="87" cy="402" r="5" fill="white" fill-opacity="0.25"/>
<circle cx="122" cy="402" r="5" fill="white" fill-opacity="0.25"/>
<circle cx="157" cy="402" r="5" fill="white" fill-opacity="0.25"/>
<circle cx="192" cy="402" r="5" fill="white" fill-opacity="0.25"/>
<circle cx="227" cy="402" r="5" fill="white" fill-opacity="0.25"/>
<circle cx="17" cy="437" r="5" fill="white" fill-opacity="0.25"/>
<circle cx="52" cy="437" r="5" fill="white" fill-opacity="0.25"/>
<circle cx="87" cy="437" r="5" fill="white" fill-opacity="0.25"/>
<circle cx="122" cy="437" r="5" fill="white" fill-opacity="0.25"/>
<circle cx="157" cy="437" r="5" fill="white" fill-opacity="0.25"/>
<circle cx="192" cy="437" r="5" fill="white" fill-opacity="0.25"/>
<circle cx="227" cy="437" r="5" fill="white" fill-opacity="0.25"/>
<circle cx="17" cy="472" r="5" fill="white" fill-opacity="0.25"/>
<circle cx="52" cy="472" r="5" fill="white" fill-opacity="0.25"/>
<circle cx="87" cy="472" r="5" fill="white" fill-opacity="0.25"/>
<circle cx="122" cy="472" r="5" fill="white" fill-opacity="0.25"/>
<circle cx="157" cy="472" r="5" fill="white" fill-opacity="0.25"/>
<circle cx="192" cy="472" r="5" fill="white" fill-opacity="0.25"/>
<circle cx="227" cy="472" r="5" fill="white" fill-opacity="0.25"/>
<circle cx="17" cy="507" r="5" fill="white" fill-opacity="0.25"/>
<circle cx="52" cy="507" r="5" fill="white" fill-opacity="0.25"/>
<circle cx="87" cy="507" r="5" fill="white" fill-opacity="0.25"/>
<circle cx="122" cy="507" r="5" fill="white" fill-opacity="0.25"/>
<circle cx="157" cy="507" r="5" fill="white" fill-opacity="0.25"/>
<circle cx="192" cy="507" r="5" fill="white" fill-opacity="0.25"/>
<circle cx="227" cy="507" r="5" fill="white" fill-opacity="0.25"/>
<circle cx="17" cy="542" r="5" fill="white" fill-opacity="0.25"/>
<circle cx="52" cy="542" r="5" fill="white" fill-opacity="0.25"/>
<circle cx="87" cy="542" r="5" fill="white" fill-opacity="0.25"/>
<circle cx="122" cy="542" r="5" fill="white" fill-opacity="0.25"/>
<circle cx="157" cy="542" r="5" fill="white" fill-opacity="0.25"/>
<circle cx="192" cy="542" r="5" fill="white" fill-opacity="0.25"/>
<circle cx="227" cy="542" r="5" fill="white" fill-opacity="0.25"/>
<circle cx="17" cy="577" r="5" fill="white" fill-opacity="0.25"/>
<circle cx="52" cy="577" r="5" fill="white" fill-opacity="0.25"/>
<circle cx="87" cy="577" r="5" fill="white" fill-opacity="0.25"/>
<circle cx="122" cy="577" r="5" fill="white" fill-opacity="0.25"/>
<circle cx="157" cy="577" r="5" fill="white" fill-opacity="0.25"/>
<circle cx="192" cy="577" r="5" fill="white" fill-opacity="0.25"/>
<circle cx="227" cy="577" r="5" fill="white" fill-opacity="0.25"/>
<circle cx="17" cy="612" r="5" fill="white" fill-opacity="0.25"/>
<circle cx="52" cy="612" r="5" fill="white" fill-opacity="0.25"/>
<circle cx="87" cy="612" r="5" fill="white" fill-opacity="0.25"/>
<circle cx="122" cy="612" r="5" fill="white" fill-opacity="0.25"/>
<circle cx="157" cy="612" r="5" fill="white" fill-opacity="0.25"/>
<circle cx="192" cy="612" r="5" fill="white" fill-opacity="0.25"/>
<circle cx="227" cy="612" r="5" fill="white" fill-opacity="0.25"/>
</g>
</g>
<defs>
<clipPath id="clip0_61_78">
<rect width="250" height="630" fill="white"/>
</clipPath>
<clipPath id="clip1_61_78">
<rect width="250" height="630" fill="white" transform="translate(12 12)"/>
</clipPath>
</defs>
</svg>
