<svg width="284" height="67" viewBox="0 0 284 67" fill="none" xmlns="http://www.w3.org/2000/svg">
<path d="M81.6257 49C79.4113 49 77.4183 48.519 75.6468 47.557C73.8974 46.5727 72.5134 45.1745 71.4947 43.3624C70.4982 41.528 70 39.3915 70 36.953C70 34.5145 70.4982 32.3893 71.4947 30.5772C72.5134 28.7427 73.8974 27.3445 75.6468 26.3825C77.4183 25.3982 79.4113 24.906 81.6257 24.906C83.1315 24.906 84.4713 25.085 85.6449 25.443C86.8407 25.8009 88.0254 26.3154 89.1991 26.9866C89.6862 27.255 89.9298 27.6801 89.9298 28.2617C89.9298 28.5973 89.808 28.8993 89.5645 29.1678C89.3209 29.4139 88.9998 29.5369 88.6012 29.5369C88.3797 29.5369 88.1804 29.4922 88.0033 29.4027C87.0289 28.8881 86.0767 28.4966 85.1467 28.2282C84.2166 27.9597 83.1426 27.8255 81.9247 27.8255C80.0203 27.8255 78.3927 28.2282 77.0419 29.0336C75.7132 29.8166 74.7057 30.9016 74.0192 32.2886C73.3549 33.6532 73.0227 35.2081 73.0227 36.953C73.0227 38.698 73.3549 40.264 74.0192 41.651C74.7057 43.0157 75.7132 44.1007 77.0419 44.906C78.3927 45.689 80.0203 46.0805 81.9247 46.0805C83.1426 46.0805 84.2166 45.9463 85.1467 45.6779C86.0767 45.4094 87.0289 45.0179 88.0033 44.5034C88.1804 44.4139 88.3797 44.3691 88.6012 44.3691C88.9998 44.3691 89.3209 44.4922 89.5645 44.7383C89.808 44.9843 89.9298 45.2864 89.9298 45.6443C89.9298 46.226 89.6862 46.651 89.1991 46.9195C88.0254 47.5906 86.8407 48.1051 85.6449 48.4631C84.4713 48.821 83.1315 49 81.6257 49Z" fill="black"/>
<path d="M98.2111 49C97.2368 49 96.3288 48.7987 95.4874 48.396C94.668 47.9933 94.0148 47.4116 93.5276 46.651C93.0404 45.868 92.7968 44.9732 92.7968 43.9664C92.7968 42.311 93.439 40.9911 94.7234 40.0067C96.0299 39.0224 97.9343 38.5302 100.437 38.5302H104.456V38.2617C104.456 36.7852 104.09 35.7226 103.36 35.0738C102.651 34.4251 101.533 34.1007 100.005 34.1007C99.1633 34.1007 98.4104 34.1678 97.7461 34.302C97.1039 34.4362 96.3842 34.6376 95.587 34.906C95.4098 34.9508 95.2659 34.9732 95.1552 34.9732C94.823 34.9732 94.5352 34.8501 94.2916 34.604C94.048 34.3579 93.9262 34.0559 93.9262 33.698C93.9262 33.094 94.2141 32.6689 94.7898 32.4228C96.6721 31.6174 98.5876 31.2148 100.536 31.2148C102.064 31.2148 103.349 31.528 104.389 32.1544C105.452 32.7808 106.227 33.5973 106.714 34.604C107.224 35.5884 107.478 36.6622 107.478 37.8255V47.3221C107.478 47.7472 107.323 48.1051 107.013 48.396C106.726 48.6868 106.371 48.8322 105.951 48.8322C105.53 48.8322 105.175 48.6868 104.888 48.396C104.6 48.1051 104.456 47.7472 104.456 47.3221V46.4497C102.817 48.1499 100.736 49 98.2111 49ZM99.3405 46.3154C100.315 46.3154 101.256 46.0805 102.164 45.6107C103.072 45.1186 103.836 44.5145 104.456 43.7987V40.9799H100.835C97.4914 40.9799 95.8195 41.8635 95.8195 43.6309C95.8195 44.4362 96.0852 45.085 96.6167 45.5772C97.1703 46.0694 98.0782 46.3154 99.3405 46.3154Z" fill="black"/>
<path d="M114.039 48.8322C113.619 48.8322 113.264 48.6868 112.977 48.396C112.689 48.1051 112.545 47.7472 112.545 47.3221V32.9262C112.545 32.5011 112.689 32.1432 112.977 31.8523C113.264 31.5391 113.619 31.3825 114.039 31.3825C114.46 31.3825 114.815 31.5391 115.102 31.8523C115.412 32.1432 115.567 32.5011 115.567 32.9262V34.3691C117.118 32.2662 118.856 31.2148 120.782 31.2148H120.948C121.369 31.2148 121.712 31.3602 121.978 31.651C122.266 31.9418 122.41 32.2998 122.41 32.7248C122.41 33.1499 122.266 33.4966 121.978 33.7651C121.69 34.0336 121.325 34.1678 120.882 34.1678H120.716C119.653 34.1678 118.679 34.4362 117.793 34.9732C116.907 35.4877 116.165 36.2036 115.567 37.1208V47.3221C115.567 47.7472 115.412 48.1051 115.102 48.396C114.815 48.6868 114.46 48.8322 114.039 48.8322Z" fill="black"/>
<path d="M131.782 49C130.41 49 129.103 48.6532 127.863 47.9597C126.645 47.2438 125.649 46.2148 124.873 44.8725C124.121 43.5078 123.744 41.9195 123.744 40.1074C123.744 38.2953 124.121 36.7181 124.873 35.3758C125.649 34.0112 126.645 32.9821 127.863 32.2886C129.103 31.5727 130.41 31.2148 131.782 31.2148C133.953 31.2148 135.846 32.0649 137.462 33.7651V25.5436C137.462 25.0962 137.606 24.7271 137.894 24.4362C138.204 24.1454 138.57 24 138.99 24C139.411 24 139.766 24.1566 140.053 24.4698C140.341 24.7606 140.485 25.1186 140.485 25.5436V47.3221C140.485 47.7472 140.341 48.1051 140.053 48.396C139.766 48.6868 139.411 48.8322 138.99 48.8322C138.57 48.8322 138.204 48.6868 137.894 48.396C137.606 48.1051 137.462 47.7472 137.462 47.3221V46.4497C135.846 48.1499 133.953 49 131.782 49ZM132.214 46.1477C133.233 46.1477 134.185 45.9239 135.071 45.4765C135.979 45.0067 136.776 44.3915 137.462 43.6309V36.5839C136.776 35.8233 135.979 35.2192 135.071 34.7718C134.185 34.302 133.233 34.0671 132.214 34.0671C130.576 34.0671 129.258 34.5928 128.262 35.6443C127.265 36.6957 126.767 38.1834 126.767 40.1074C126.767 42.0313 127.265 43.519 128.262 44.5705C129.258 45.6219 130.576 46.1477 132.214 46.1477Z" fill="black"/>
<path d="M150.047 49C149.072 49 148.165 48.7987 147.323 48.396C146.504 47.9933 145.851 47.4116 145.363 46.651C144.876 45.868 144.633 44.9732 144.633 43.9664C144.633 42.311 145.275 40.9911 146.559 40.0067C147.866 39.0224 149.77 38.5302 152.272 38.5302H156.292V38.2617C156.292 36.7852 155.926 35.7226 155.195 35.0738C154.487 34.4251 153.368 34.1007 151.841 34.1007C150.999 34.1007 150.246 34.1678 149.582 34.302C148.94 34.4362 148.22 34.6376 147.423 34.906C147.246 34.9508 147.102 34.9732 146.991 34.9732C146.659 34.9732 146.371 34.8501 146.127 34.604C145.884 34.3579 145.762 34.0559 145.762 33.698C145.762 33.094 146.05 32.6689 146.626 32.4228C148.508 31.6174 150.423 31.2148 152.372 31.2148C153.9 31.2148 155.184 31.528 156.225 32.1544C157.288 32.7808 158.063 33.5973 158.55 34.604C159.06 35.5884 159.314 36.6622 159.314 37.8255V47.3221C159.314 47.7472 159.159 48.1051 158.849 48.396C158.561 48.6868 158.207 48.8322 157.786 48.8322C157.366 48.8322 157.011 48.6868 156.723 48.396C156.435 48.1051 156.292 47.7472 156.292 47.3221V46.4497C154.653 48.1499 152.571 49 150.047 49ZM151.176 46.3154C152.151 46.3154 153.092 46.0805 154 45.6107C154.908 45.1186 155.671 44.5145 156.292 43.7987V40.9799H152.671C149.327 40.9799 147.655 41.8635 147.655 43.6309C147.655 44.4362 147.921 45.085 148.452 45.5772C149.006 46.0694 149.914 46.3154 151.176 46.3154Z" fill="black"/>
<path d="M165.875 48.8322C165.454 48.8322 165.1 48.6868 164.812 48.396C164.524 48.1051 164.38 47.7472 164.38 47.3221V32.9262C164.38 32.5011 164.524 32.1432 164.812 31.8523C165.1 31.5391 165.454 31.3825 165.875 31.3825C166.296 31.3825 166.65 31.5391 166.938 31.8523C167.248 32.1432 167.403 32.5011 167.403 32.9262V34.302C168.245 33.3624 169.153 32.613 170.127 32.0537C171.101 31.4944 172.253 31.2148 173.581 31.2148C174.799 31.2148 175.851 31.5056 176.737 32.0872C177.645 32.6689 178.331 33.4631 178.796 34.4698C179.284 35.4765 179.527 36.5839 179.527 37.7919V47.3221C179.527 47.7472 179.372 48.1051 179.062 48.396C178.774 48.6868 178.42 48.8322 177.999 48.8322C177.578 48.8322 177.224 48.6868 176.936 48.396C176.648 48.1051 176.504 47.7472 176.504 47.3221V38.1275C176.504 35.3982 175.287 34.0336 172.851 34.0336C171.743 34.0336 170.747 34.3244 169.861 34.906C168.998 35.4877 168.178 36.2707 167.403 37.255V47.3221C167.403 47.7472 167.248 48.1051 166.938 48.396C166.65 48.6868 166.296 48.8322 165.875 48.8322Z" fill="black"/>
<path d="M192.095 49C190.39 49 188.896 48.6309 187.611 47.8926C186.327 47.1544 185.33 46.1141 184.622 44.7718C183.935 43.4072 183.592 41.8523 183.592 40.1074C183.592 38.3624 183.935 36.8188 184.622 35.4765C185.33 34.1119 186.327 33.0604 187.611 32.3221C188.896 31.5839 190.39 31.2148 192.095 31.2148C193.778 31.2148 195.262 31.5839 196.546 32.3221C197.831 33.0604 198.827 34.1119 199.536 35.4765C200.244 36.8188 200.599 38.3624 200.599 40.1074C200.599 41.8523 200.244 43.4072 199.536 44.7718C198.827 46.1141 197.831 47.1544 196.546 47.8926C195.262 48.6309 193.778 49 192.095 49ZM192.095 46.2148C193.003 46.2148 193.867 46.0022 194.686 45.5772C195.528 45.1521 196.214 44.481 196.746 43.5638C197.299 42.6465 197.576 41.4832 197.576 40.0738C197.576 38.6868 197.299 37.5347 196.746 36.6174C196.214 35.7002 195.528 35.0403 194.686 34.6376C193.867 34.2125 193.003 34 192.095 34C191.165 34 190.28 34.2125 189.438 34.6376C188.619 35.0403 187.943 35.7002 187.412 36.6174C186.88 37.5347 186.615 38.6868 186.615 40.0738C186.615 41.4832 186.88 42.6465 187.412 43.5638C187.943 44.481 188.619 45.1521 189.438 45.5772C190.28 46.0022 191.165 46.2148 192.095 46.2148Z" fill="black"/>
<path d="M214.89 49C212.078 49 209.442 48.4631 206.984 47.3893C206.719 47.2774 206.497 47.0984 206.32 46.8523C206.143 46.5839 206.054 46.3043 206.054 46.0134C206.054 45.6331 206.176 45.3087 206.42 45.0403C206.685 44.7494 207.018 44.604 207.416 44.604C207.638 44.604 207.848 44.6488 208.047 44.7383C210.085 45.6555 212.266 46.1141 214.591 46.1141C218.466 46.1141 220.404 44.8277 220.404 42.255C220.404 41.5839 220.149 41.0246 219.64 40.5772C219.153 40.1298 218.544 39.783 217.813 39.5369C217.082 39.2685 216.041 38.9553 214.691 38.5973C212.897 38.1275 211.446 37.6801 210.339 37.255C209.232 36.8076 208.28 36.1477 207.483 35.2752C206.685 34.4027 206.287 33.2394 206.287 31.7852C206.287 30.5101 206.619 29.3579 207.283 28.3289C207.948 27.2774 208.922 26.4497 210.206 25.8456C211.513 25.2192 213.074 24.906 214.89 24.906C217.326 24.906 219.529 25.2752 221.5 26.0134C222.12 26.2371 222.43 26.6846 222.43 27.3557C222.43 27.7136 222.308 28.038 222.065 28.3289C221.821 28.6197 221.5 28.7651 221.101 28.7651C220.969 28.7651 220.791 28.7204 220.57 28.6309C218.843 28.0268 217.06 27.7248 215.222 27.7248C213.473 27.7248 212.044 28.0604 210.937 28.7315C209.852 29.4027 209.31 30.3423 209.31 31.5503C209.31 32.3557 209.564 33.0157 210.074 33.5302C210.605 34.0224 211.258 34.4139 212.033 34.7047C212.83 34.9732 213.904 35.264 215.255 35.5772C217.005 36.0022 218.411 36.4273 219.474 36.8523C220.559 37.2774 221.478 37.9374 222.231 38.8322C223.006 39.7271 223.393 40.9351 223.393 42.4564C223.393 43.7092 223.039 44.8389 222.33 45.8456C221.622 46.83 220.625 47.6018 219.341 48.1611C218.057 48.7204 216.573 49 214.89 49Z" fill="#268DDF"/>
<path d="M228.688 48.8322C228.267 48.8322 227.913 48.6868 227.625 48.396C227.337 48.1051 227.193 47.7472 227.193 47.3221V25.5436C227.193 25.1186 227.337 24.7606 227.625 24.4698C227.913 24.1566 228.267 24 228.688 24C229.109 24 229.463 24.1566 229.751 24.4698C230.061 24.7606 230.216 25.1186 230.216 25.5436V39.2685L238.121 31.8859C238.454 31.5951 238.786 31.4497 239.118 31.4497C239.627 31.4497 239.993 31.5951 240.214 31.8859C240.458 32.1767 240.579 32.5235 240.579 32.9262C240.579 33.3065 240.391 33.6868 240.015 34.0671L235.232 38.396L241.244 46.4497C241.465 46.7405 241.576 47.0425 241.576 47.3557C241.576 47.8031 241.432 48.1611 241.144 48.4295C240.856 48.698 240.491 48.8322 240.048 48.8322C239.827 48.8322 239.605 48.7763 239.384 48.6644C239.162 48.5526 238.974 48.396 238.819 48.1946L233.106 40.3423L230.216 42.9933V47.3221C230.216 47.7472 230.061 48.1051 229.751 48.396C229.463 48.6868 229.109 48.8322 228.688 48.8322Z" fill="#268DDF"/>
<path d="M246.722 28.0604C246.257 28.0604 245.858 27.8926 245.526 27.557C245.194 27.2215 245.028 26.8188 245.028 26.349V26.2148C245.028 25.745 245.194 25.3423 245.526 25.0067C245.858 24.6711 246.257 24.5034 246.722 24.5034H246.921C247.386 24.5034 247.785 24.6711 248.117 25.0067C248.449 25.3423 248.615 25.745 248.615 26.2148V26.349C248.615 26.8188 248.449 27.2215 248.117 27.557C247.785 27.8926 247.386 28.0604 246.921 28.0604H246.722ZM246.788 48.8322C246.368 48.8322 246.013 48.6868 245.725 48.396C245.437 48.1051 245.294 47.7472 245.294 47.3221V32.9262C245.294 32.5011 245.437 32.1432 245.725 31.8523C246.013 31.5391 246.368 31.3825 246.788 31.3825C247.231 31.3825 247.597 31.528 247.884 31.8188C248.172 32.1096 248.316 32.4787 248.316 32.9262V47.3221C248.316 47.7472 248.161 48.1051 247.851 48.396C247.563 48.6868 247.209 48.8322 246.788 48.8322Z" fill="#268DDF"/>
<path d="M255.06 48.8322C254.639 48.8322 254.285 48.6868 253.997 48.396C253.709 48.1051 253.565 47.7472 253.565 47.3221V25.5436C253.565 25.1186 253.709 24.7606 253.997 24.4698C254.285 24.1566 254.639 24 255.06 24C255.503 24 255.868 24.1454 256.156 24.4362C256.444 24.7271 256.588 25.0962 256.588 25.5436V47.3221C256.588 47.7472 256.433 48.1051 256.123 48.396C255.835 48.6868 255.481 48.8322 255.06 48.8322Z" fill="#268DDF"/>
<path d="M263.332 48.8322C262.911 48.8322 262.557 48.6868 262.269 48.396C261.981 48.1051 261.837 47.7472 261.837 47.3221V25.5436C261.837 25.1186 261.981 24.7606 262.269 24.4698C262.557 24.1566 262.911 24 263.332 24C263.774 24 264.14 24.1454 264.428 24.4362C264.716 24.7271 264.86 25.0962 264.86 25.5436V47.3221C264.86 47.7472 264.705 48.1051 264.395 48.396C264.107 48.6868 263.752 48.8322 263.332 48.8322Z" fill="#268DDF"/>
<path d="M275.589 49C273.375 49 271.36 48.4966 269.544 47.4899C269.167 47.2215 268.979 46.8523 268.979 46.3826C268.979 46.0246 269.101 45.7114 269.345 45.443C269.588 45.1745 269.898 45.0403 270.275 45.0403C270.474 45.0403 270.673 45.085 270.873 45.1745C271.581 45.4877 272.29 45.7338 272.998 45.9128C273.707 46.0917 274.504 46.1812 275.39 46.1812C277.848 46.1812 279.077 45.387 279.077 43.7987C279.077 43.2841 278.789 42.8926 278.213 42.6242C277.66 42.3557 276.741 42.0537 275.456 41.7181C274.15 41.4049 273.065 41.0805 272.201 40.745C271.36 40.4094 270.629 39.906 270.009 39.2349C269.411 38.5414 269.112 37.6353 269.112 36.5168C269.112 34.9508 269.666 33.6756 270.773 32.6913C271.902 31.7069 273.508 31.2148 275.589 31.2148C277.294 31.2148 278.9 31.4944 280.406 32.0537C280.716 32.1432 280.948 32.311 281.103 32.557C281.28 32.8031 281.369 33.0604 281.369 33.3289C281.369 33.6868 281.236 34 280.97 34.2685C280.727 34.5369 280.417 34.6711 280.04 34.6711C279.93 34.6711 279.786 34.6488 279.608 34.604C278.324 34.2013 277.062 34 275.822 34C274.626 34 273.685 34.2237 272.998 34.6711C272.334 35.0962 272.002 35.6555 272.002 36.349C272.002 37.0201 272.312 37.5123 272.932 37.8255C273.552 38.1387 274.515 38.4407 275.822 38.7315C277.128 39.0671 278.191 39.4027 279.011 39.7383C279.83 40.0515 280.527 40.5548 281.103 41.2483C281.701 41.9418 282 42.8702 282 44.0336C282 45.4653 281.435 46.651 280.306 47.5906C279.199 48.5302 277.627 49 275.589 49Z" fill="#268DDF"/>
<path d="M62 12.9187V54.1194C62 54.3102 62 54.5391 62 54.7298C61.8856 56.4084 61.3896 57.9725 60.5503 59.3077C58.7955 62.1307 55.6673 64 52.1195 64H10.9187C5.42527 64 1 59.5747 1 54.0813V12.8806C1 12.8043 1 12.6898 1 12.6135C1 12.0031 1.0763 11.4309 1.19074 10.8587C2.10632 6.39525 6.11195 3 10.8806 3H52.0813C56.8499 3 60.8555 6.39525 61.8093 10.8968C61.9237 11.5453 62 12.232 62 12.9187Z" fill="#3BA7E9"/>
<g clip-path="url(#clip0_59_42)">
<path d="M21.5135 33.3593C21.4239 34.9238 22.6223 36.2632 24.1791 36.3532C24.2351 36.3532 24.2911 36.3532 24.3471 36.3532C25.9151 36.3532 27.1807 35.0814 27.1695 33.5056C27.1695 31.9299 25.9039 30.658 24.3359 30.6693C22.8351 30.6693 21.5919 31.8511 21.5135 33.3593Z" fill="white"/>
<path d="M10.9632 32.6277C10.4592 32.5939 10.0224 32.9879 9.99996 33.4944C9.97756 34.0009 10.3584 34.4398 10.8624 34.4623C11.3664 34.4961 11.792 34.1022 11.8256 33.5957C11.8592 33.0892 11.4672 32.6615 10.9632 32.6277Z" fill="white"/>
<path d="M21.3343 16.8589C21.7823 16.6338 21.9615 16.071 21.7375 15.6208C21.5135 15.1706 20.9535 14.9905 20.5055 15.2156C20.0575 15.4407 19.8783 15.9922 20.1023 16.4424C20.3263 16.9039 20.8751 17.0952 21.3343 16.8589Z" fill="white"/>
<path d="M24.2015 21.89C24.8959 21.5411 25.1759 20.6857 24.8287 19.9879C24.4815 19.29 23.6303 19.0087 22.9359 19.3576C22.2415 19.7065 21.9615 20.5619 22.3087 21.2597C22.6559 21.9576 23.5071 22.239 24.2015 21.89Z" fill="white"/>
<path d="M14.5471 25.3455C15.0847 25.6944 15.8015 25.548 16.1599 25.0078C16.5071 24.4675 16.3615 23.7472 15.8239 23.387C15.2863 23.0381 14.5695 23.1844 14.2111 23.7247C13.8527 24.2649 14.0095 24.9965 14.5471 25.3455Z" fill="white"/>
<path d="M16.2608 32.1212C15.4768 32.0762 14.816 32.6727 14.7712 33.4606C14.7264 34.2485 15.32 34.9126 16.104 34.9576C16.888 35.0026 17.5488 34.4061 17.5936 33.6182C17.6384 32.8416 17.0448 32.1662 16.2608 32.1212Z" fill="white"/>
<path d="M14.7039 41.6545C14.1327 41.9472 13.8975 42.645 14.1887 43.2303C14.4799 43.8043 15.1743 44.0407 15.7567 43.748C16.3279 43.4554 16.5631 42.7576 16.2719 42.1723C15.9807 41.5983 15.2751 41.3619 14.7039 41.6545Z" fill="white"/>
<path d="M20.1919 29.1835C20.9647 29.69 21.9951 29.4762 22.4879 28.6996C22.9919 27.9229 22.7791 26.8874 22.0063 26.3922C21.2335 25.8857 20.2031 26.0996 19.7103 26.8762C19.2063 27.6416 19.4191 28.6771 20.1919 29.1835Z" fill="white"/>
<path d="M37.6079 21.7775C38.2575 22.2052 39.1423 22.0251 39.5679 21.3723C39.9935 20.7195 39.8143 19.8303 39.1647 19.4026C38.5151 18.9749 37.6303 19.155 37.2047 19.8078C36.7679 20.4719 36.9471 21.3498 37.6079 21.7775Z" fill="white"/>
<path d="M40.4976 16.7688C40.9232 17.0502 41.4832 16.9264 41.7632 16.4987C42.0432 16.071 41.92 15.5082 41.4944 15.2268C41.0688 14.9455 40.5088 15.0693 40.2288 15.4857C39.96 15.9134 40.0832 16.4874 40.4976 16.7688Z" fill="white"/>
<path d="M37.8206 30.6468C36.2638 30.5567 34.9198 31.761 34.8414 33.3255C34.7518 34.89 35.9502 36.2407 37.507 36.3195C37.563 36.3195 37.619 36.3195 37.6638 36.3195C39.2206 36.3195 40.4862 35.0476 40.4862 33.4719C40.4974 31.9749 39.3214 30.7255 37.8206 30.6468Z" fill="white"/>
<path d="M25.1311 28.981C25.6127 29.9377 26.5871 30.5455 27.6623 30.5455C29.2191 30.5455 30.4847 29.2736 30.4847 27.6978C30.4847 27.2589 30.3839 26.8199 30.1823 26.4147C29.4767 25.0078 27.7743 24.445 26.3855 25.1541C24.9855 25.8745 24.4255 27.5853 25.1311 28.981Z" fill="white"/>
<path d="M47.2959 25.3455C47.8671 25.0528 48.0911 24.3437 47.7999 23.7697C47.5087 23.1957 46.8031 22.9706 46.2319 23.2632C45.6607 23.5558 45.4367 24.2537 45.7167 24.8277C46.0191 25.4017 46.7135 25.6381 47.2959 25.3455Z" fill="white"/>
<path d="M40.1279 26.2459C39.3103 26.6623 38.9743 27.6641 39.3887 28.4857C39.8031 29.3074 40.7999 29.645 41.6175 29.2286C42.4351 28.8121 42.7711 27.8104 42.3567 26.9887C41.9423 26.1671 40.9455 25.8407 40.1279 26.2459Z" fill="white"/>
<path d="M30.8878 16.3411C31.5262 16.3749 32.075 15.8797 32.1198 15.2381C32.1646 14.5965 31.6606 14.045 31.0222 14C30.3838 13.9662 29.835 14.4502 29.7902 15.0918C29.7566 15.7446 30.2494 16.2961 30.8878 16.3411Z" fill="white"/>
<path d="M30.8767 23.6909C31.7951 23.7472 32.5791 23.0381 32.6239 22.1152C32.6799 21.1922 31.9743 20.4043 31.0559 20.3593C30.1375 20.303 29.3535 21.0121 29.3087 21.9351C29.2639 22.858 29.9583 23.6459 30.8767 23.6909Z" fill="white"/>
<path d="M21.8719 40.7541C22.6895 40.3377 23.0255 39.3359 22.6111 38.5143C22.1967 37.6926 21.1999 37.355 20.3823 37.7714C19.5647 38.1879 19.2287 39.1896 19.6431 40.0113C20.0575 40.8329 21.0543 41.1706 21.8719 40.7541Z" fill="white"/>
<path d="M31.9519 26.1333C31.1007 27.4502 31.4591 29.2061 32.7695 30.0615C34.0799 30.9169 35.8271 30.5567 36.6783 29.2398C37.5295 27.9229 37.1711 26.1671 35.8607 25.3117C35.4015 25.0078 34.8639 24.8502 34.3151 24.8502C33.3631 24.8502 32.4783 25.3342 31.9519 26.1333Z" fill="white"/>
<path d="M36.8686 38.019C36.163 36.6121 34.4606 36.0494 33.0718 36.7584C31.6718 37.4675 31.1118 39.1784 31.8174 40.574C32.523 41.981 34.2254 42.5437 35.6142 41.8346C37.003 41.1368 37.5742 39.4485 36.8798 38.0416C36.8798 38.0303 36.8798 38.0303 36.8686 38.019Z" fill="white"/>
<path d="M41.8078 37.8164C41.035 37.31 40.0046 37.5238 39.5118 38.3004C39.0078 39.0771 39.2206 40.1126 39.9934 40.6078C40.7662 41.1143 41.7966 40.9004 42.2894 40.1238C42.7934 39.3584 42.5806 38.3229 41.8078 37.8164Z" fill="white"/>
<path d="M47.2286 33.5507C47.2734 32.7628 46.6798 32.0987 45.8958 32.0537C45.1118 32.0087 44.451 32.6052 44.4062 33.3931C44.3614 34.181 44.955 34.845 45.739 34.89C46.5118 34.9351 47.1838 34.3273 47.2286 33.5507Z" fill="white"/>
<path d="M51.1375 32.5377C50.6335 32.5039 50.1967 32.8978 50.1743 33.4043C50.1519 33.9108 50.5327 34.3498 51.0367 34.3723C51.5407 34.4061 51.9663 34.0121 51.9999 33.5056C52.0223 32.9991 51.6415 32.5714 51.1375 32.5377Z" fill="white"/>
<path d="M47.4528 41.6545C46.9152 41.3056 46.1984 41.4519 45.84 41.9922C45.4928 42.5325 45.6384 43.2528 46.176 43.613C46.7136 43.9619 47.4304 43.8156 47.7888 43.2753C48.1472 42.7351 47.9904 42.0035 47.4528 41.6545Z" fill="white"/>
<path d="M21.4912 50.2312C21.0656 49.9498 20.5056 50.0736 20.2256 50.49C19.9456 50.9178 20.0688 51.4805 20.4832 51.7619C20.9088 52.0433 21.4688 51.9195 21.7488 51.503C22.04 51.0866 21.9168 50.5126 21.4912 50.2312Z" fill="white"/>
<path d="M40.6654 50.1411C40.2174 50.3662 40.0382 50.929 40.2622 51.3792C40.4862 51.8294 41.0462 52.0095 41.4942 51.7844C41.9422 51.5593 42.1214 51.0078 41.8974 50.5576C41.6734 50.0961 41.1246 49.9048 40.6654 50.1411Z" fill="white"/>
<path d="M30.0479 40.8667C30.8991 39.5498 30.5407 37.7939 29.2303 36.9273C27.9199 36.0719 26.1727 36.432 25.3103 37.7489C24.4479 39.0658 24.8175 40.8216 26.1279 41.6883C26.5871 41.9922 27.1247 42.1498 27.6735 42.1498C28.6367 42.161 29.5215 41.6771 30.0479 40.8667Z" fill="white"/>
<path d="M24.3918 45.2225C23.7422 44.7948 22.8574 44.9749 22.4318 45.6277C22.0062 46.2805 22.1854 47.1697 22.835 47.5974C23.4846 48.0251 24.3694 47.845 24.795 47.1922C25.2318 46.5394 25.0526 45.6502 24.3918 45.2225Z" fill="white"/>
<path d="M30.9887 50.6589C30.3503 50.6251 29.8015 51.1203 29.7567 51.7619C29.7119 52.4035 30.2159 52.955 30.8543 53C31.4927 53.0338 32.0415 52.5498 32.0863 51.9082C32.1199 51.2554 31.6271 50.7039 30.9887 50.6589Z" fill="white"/>
<path d="M30.9998 43.3091C30.0814 43.2528 29.2974 43.9619 29.2526 44.8848C29.1966 45.8078 29.9022 46.5957 30.8206 46.6407C31.739 46.6857 32.523 45.9879 32.5678 45.0649C32.6238 44.1532 31.9182 43.3541 30.9998 43.3091Z" fill="white"/>
<path d="M37.7984 45.11C37.104 45.4701 36.824 46.3255 37.1824 47.0234C37.5408 47.7212 38.392 48.0026 39.0864 47.6424C39.7808 47.2935 40.0608 46.4381 39.7136 45.7403C39.3552 45.0424 38.504 44.7498 37.7984 45.11Z" fill="white"/>
</g>
<defs>
<clipPath id="clip0_59_42">
<rect width="42" height="39" fill="white" transform="translate(10 14)"/>
</clipPath>
</defs>
</svg>
